<svg xmlns="http://www.w3.org/2000/svg" viewBox="0 0 96 96" role="img" aria-labelledby="title desc">
  <title id="title">Captain avatar</title>
  <desc id="desc">A generic driver captain avatar illustration.</desc>
  <defs>
    <linearGradient id="bg" x1="0%" y1="0%" x2="100%" y2="100%">
      <stop offset="0%" stop-color="#0f172a" />
      <stop offset="100%" stop-color="#1d4ed8" />
    </linearGradient>
  </defs>
  <circle cx="48" cy="48" r="48" fill="url(#bg)" />
  <circle cx="48" cy="39" r="15" fill="#f3c9a9" />
  <path d="M22 79c5-15 16-23 26-23c12 0 24 8 28 23" fill="#eab308" />
  <path d="M29 31c3-10 14-17 27-17c7 0 13 2 18 7l-5 7H28l1-5Z" fill="#111827" />
  <path d="M28 28h42l-4 10H32l-4-10Z" fill="#facc15" />
  <path d="M36 55c3 3 7 5 12 5c5 0 9-2 12-5" fill="none" stroke="#9a3412" stroke-linecap="round" stroke-width="2.5" />
</svg>
